<svg width="124" height="42" viewBox="0 0 124 42" fill="none" xmlns="http://www.w3.org/2000/svg">
<g filter="url(#filter0_d_704_5830)">
<path d="M38.4026 5.12196C34.2373 0.959346 27.4803 0.959346 23.3151 5.12196L21.7633 6.67274L20.2115 5.12196C16.0462 0.959346 9.28923 0.959346 5.12396 5.12196C0.958681 9.28458 0.958681 16.0373 5.12396 20.1999L13.2748 28.3455C13.558 28.7156 13.8629 29.0801 14.2004 29.4229L18.7523 33.9719C20.4184 35.6369 23.1136 35.6369 24.7743 33.9719L29.3261 29.4229C29.6691 29.0801 29.9741 28.7101 30.2626 28.3347L38.3972 20.2053C42.5624 16.0427 42.5624 9.29002 38.3972 5.1274L38.4026 5.12196ZM36.1212 13.7301C36.0505 13.8771 35.9524 14.0131 35.8653 14.1546C35.7837 14.2362 35.6965 14.3232 35.6149 14.4049C35.604 14.4049 35.5931 14.4103 35.5822 14.4157C35.212 14.7096 34.7818 14.8402 34.3136 14.8347C33.7636 14.8293 33.2192 14.8347 32.6692 14.8347C32.6311 14.8347 32.593 14.813 32.5549 14.8075C32.5494 14.8238 32.544 14.8347 32.5331 14.8511C32.5331 14.8837 32.5494 14.9163 32.5494 14.949C32.5494 15.5149 32.5494 16.0862 32.5494 16.6521C32.5494 16.9677 32.4896 17.2616 32.3425 17.5391C32.2772 17.6642 32.1955 17.7785 32.1193 17.8982C32.0376 17.9798 31.9505 18.0669 31.8688 18.1485C31.8525 18.1539 31.8362 18.1594 31.8253 18.1703C31.2046 18.6545 30.377 18.7144 29.6964 18.3226C29.6092 18.2736 29.5276 18.2138 29.4459 18.1594C29.3588 18.0723 29.2717 17.9853 29.1846 17.8982C29.1737 17.8819 29.1682 17.8655 29.1573 17.8547C28.8688 17.4901 28.749 17.0766 28.7544 16.614C28.7544 16.0536 28.7544 15.4986 28.7544 14.9381C28.7544 14.9055 28.7544 14.8728 28.7544 14.8293C28.7109 14.8293 28.6836 14.8402 28.651 14.8402C28.0847 14.8402 27.513 14.8402 26.9467 14.8402C26.5928 14.8402 26.2607 14.7585 25.9558 14.579C25.8687 14.5246 25.7816 14.4647 25.6999 14.4103C25.6128 14.3232 25.5256 14.2362 25.4385 14.1491C25.4331 14.1328 25.4276 14.1165 25.4167 14.1056C25.1663 13.7846 25.0356 13.42 25.0247 13.0173C24.9866 11.9291 25.8414 11.0584 26.9413 11.053C27.5184 11.053 28.0956 11.053 28.6727 11.053C28.7054 11.053 28.7326 11.053 28.7762 11.053C28.7762 10.9986 28.7708 10.9551 28.7708 10.9115C28.7708 10.3239 28.7599 9.7362 28.7708 9.1431C28.798 8.10925 29.6637 7.29849 30.6982 7.31482C31.7382 7.33114 32.5603 8.1691 32.5658 9.22472C32.5658 9.8015 32.5658 10.3783 32.5658 10.9551C32.5658 10.9877 32.5658 11.0204 32.5658 11.053C32.6039 11.053 32.6366 11.053 32.6692 11.053C33.2627 11.053 33.8616 11.0421 34.4551 11.053C35.8272 11.0802 36.7093 12.5004 36.1321 13.741L36.1212 13.7301Z" fill="#FF6858"/>
</g>
<path d="M118.265 16.5391C117.397 18.0286 115.576 19.4337 112.758 19.9677V18.6047C115.704 17.9443 117.483 16.1316 117.483 13.3494V12.3096H119.02V13.3494C119.02 16.1316 120.841 17.9443 123.773 18.6047V19.9677C120.969 19.4337 119.133 18.0286 118.265 16.5391ZM112.545 24.3377V23.0169H124V24.3377H112.545Z" fill="#FF6858"/>
<path d="M104.395 24.063H99.9435V17.575H103.844V13.8656H99.9435V12.5319H105.283V18.8948H101.396V22.7432H104.476C105.377 22.7432 106.211 22.6737 106.829 22.4515V23.7018C106.224 23.9519 105.337 24.063 104.395 24.063ZM109.681 12.3096V24.9105H108.215V18.7003H105.915V17.3805H108.215V12.3096H109.681Z" fill="#FF6858"/>
<path d="M94.4159 14.9133H96.4771V16.1386H86.2275V14.9133H88.1063V13.5488H86.4659V12.3096H96.2527V13.5488H94.6122V14.1475C94.6122 14.412 94.5702 14.7044 94.4159 14.9133ZM89.6206 13.5488V14.9133H92.9437C93.0559 14.7184 93.0839 14.426 93.0839 14.1753V13.5488H89.6206ZM85.6246 18.3664V17.1132H97.08V18.3664H85.6246ZM87.9802 22.7663V23.6852H96.5331V24.9105H86.4659V21.5549H94.7244V20.622H86.4659V19.3967H96.2527V22.7663H87.9802Z" fill="#FF6858"/>
<path d="M78.19 18.6238H72.4509V12.4609H78.6977V13.7678H73.9879V17.3444H78.5849C79.7412 17.3444 80.5308 17.1794 81.0808 16.7942V12.3096H82.6178V15.1159H84.4791V16.4228H82.6178V19.2704H81.0808V18.0048C80.5449 18.4312 79.6283 18.6238 78.19 18.6238ZM73.1842 24.9105V20.0682H82.6178V24.9105H73.1842ZM81.0808 21.3476H74.7071V23.6449H81.0808V21.3476Z" fill="#FF6858"/>
<path d="M63.1327 12.391V13.9118C63.1327 16.0437 64.3572 17.1436 66.0088 17.6188V18.9223C64.3856 18.5965 63.033 17.7274 62.3638 16.6955C61.7515 17.7682 60.3847 18.6915 58.7045 19.0717V17.7682C60.3989 17.2522 61.5949 15.9894 61.5949 13.9118V12.391H63.1327ZM69.426 12.3096V15.0796H71.3055V16.3696H69.426V19.3297H67.874V12.3096H69.426ZM59.7297 22.2898C59.7297 21.543 60.0999 20.9727 60.6837 20.5518C61.6092 19.9272 63.0615 19.6692 64.7416 19.6692C66.4075 19.6692 67.874 19.9272 68.7853 20.5518C69.3691 20.9727 69.7392 21.543 69.7392 22.2898C69.7392 23.0502 69.3691 23.6205 68.7853 24.0415C67.874 24.6661 66.4075 24.9105 64.7416 24.9105C63.0615 24.9105 61.6092 24.6661 60.6837 24.0415C60.0999 23.6205 59.7297 23.0502 59.7297 22.2898ZM61.2817 22.2898C61.2817 22.6293 61.4668 22.9145 61.8085 23.1317C62.378 23.4983 63.4174 23.6477 64.7416 23.6477C66.0515 23.6477 67.0909 23.4983 67.6889 23.1317C68.0164 22.9145 68.1873 22.6293 68.1873 22.2898C68.1873 21.9504 68.0164 21.6652 67.6889 21.448C67.0909 21.0949 66.0515 20.932 64.7416 20.932C63.4174 20.932 62.378 21.0949 61.8085 21.448C61.4668 21.6652 61.2817 21.9504 61.2817 22.2898Z" fill="#FF6858"/>
<defs>
<filter id="filter0_d_704_5830" x="0.31" y="0.31" width="47.4411" height="41.1407" filterUnits="userSpaceOnUse" color-interpolation-filters="sRGB">
<feFlood flood-opacity="0" result="BackgroundImageFix"/>
<feColorMatrix in="SourceAlpha" type="matrix" values="0 0 0 0 0 0 0 0 0 0 0 0 0 0 0 0 0 0 127 0" result="hardAlpha"/>
<feOffset dx="2.27" dy="2.27"/>
<feGaussianBlur stdDeviation="1.98"/>
<feColorMatrix type="matrix" values="0 0 0 0 0.498039 0 0 0 0 0.14902 0 0 0 0 0.0117647 0 0 0 0.16 0"/>
<feBlend mode="normal" in2="BackgroundImageFix" result="effect1_dropShadow_704_5830"/>
<feBlend mode="normal" in="SourceGraphic" in2="effect1_dropShadow_704_5830" result="shape"/>
</filter>
</defs>
</svg>
