<svg width="17" height="12" viewBox="0 0 17 12" fill="none" xmlns="http://www.w3.org/2000/svg">
<path fill-rule="evenodd" clip-rule="evenodd" d="M2 1H11.1884C11.7407 1 12.1884 1.44771 12.1884 2V9.30435C12.1884 9.85663 11.7407 10.3043 11.1884 10.3043H2C1.44771 10.3043 1 9.85663 1 9.30435V2C1 1.44772 1.44771 1 2 1ZM0 2C0 0.89543 0.89543 0 2 0H11.1884C12.293 0 13.1884 0.89543 13.1884 2V3.1214L14.4528 1.45279C15.0317 0.688842 16.2499 1.09824 16.2499 2.05674V9.15907C16.2499 10.1176 15.0317 10.527 14.4528 9.76303L13.1884 8.09442V9.30435C13.1884 10.4089 12.293 11.3043 11.1884 11.3043H2C0.895429 11.3043 0 10.4089 0 9.30435V2ZM13.1884 6.43867L15.2499 9.15907L15.2499 2.05674L13.1884 4.77715V6.43867Z" fill="#090909"/>
</svg>
