<svg width="25" height="22" viewBox="0 0 25 22" fill="none" xmlns="http://www.w3.org/2000/svg">
<circle cx="12.5" cy="6.5" r="3" stroke="#090909" stroke-width="1.5" stroke-linecap="round" stroke-linejoin="round"/>
<path d="M20 18.7488C19.5246 10.2127 5.47538 10.2127 5 18.7488" stroke="#090909" stroke-width="1.5" stroke-linecap="round" stroke-linejoin="round"/>
<path d="M11.6917 16.5654C12.0862 16.3551 12.2834 16.25 12.5 16.25C12.7166 16.25 12.9138 16.3551 13.3083 16.5654L13.4417 16.6365C13.8362 16.8467 14.0334 16.9518 14.1417 17.125C14.25 17.2982 14.25 17.5084 14.25 17.9289V18.0711C14.25 18.4916 14.25 18.7018 14.1417 18.875C14.0334 19.0482 13.8362 19.1533 13.4417 19.3635L13.3083 19.4346C12.9138 19.6449 12.7166 19.75 12.5 19.75C12.2834 19.75 12.0862 19.6449 11.6917 19.4346L11.5583 19.3635C11.1638 19.1533 10.9666 19.0482 10.8583 18.875C10.75 18.7018 10.75 18.4916 10.75 18.0711V17.9289C10.75 17.5084 10.75 17.2982 10.8583 17.125C10.9666 16.9518 11.1638 16.8467 11.5583 16.6365L11.6917 16.5654Z" stroke="#090909" stroke-width="1.5" stroke-linecap="round" stroke-linejoin="round"/>
</svg>
