<svg width="24" height="24" viewBox="0 0 24 24" fill="none" xmlns="http://www.w3.org/2000/svg">
<path fill-rule="evenodd" clip-rule="evenodd" d="M6 18.5C6 18.2239 6.24944 18 6.55714 18H18.4429C18.7506 18 19 18.2239 19 18.5C19 18.7761 18.7506 19 18.4429 19H6.55714C6.24944 19 6 18.7761 6 18.5Z" fill="black"/>
<path fill-rule="evenodd" clip-rule="evenodd" d="M14.5578 5.64593C15.4176 4.78492 16.8128 4.78466 17.6729 5.64534L18.3555 6.32824C19.2148 7.18812 19.2148 8.58182 18.3555 9.44169L11.4465 16.3547C11.0335 16.7678 10.4733 17 9.88916 17H7.54545C7.24421 17 7 16.7558 7 16.4545V14.1251C7 13.5415 7.2316 12.9819 7.64394 12.569L14.5578 5.64593ZM16.9013 6.4165C16.4673 5.98226 15.7635 5.98239 15.3297 6.4168L8.41585 13.3398C8.20779 13.5482 8.09091 13.8306 8.09091 14.1251V15.9091H9.88916C10.1839 15.9091 10.4665 15.792 10.6749 15.5835L17.5839 8.67052C18.0175 8.23663 18.0175 7.53331 17.5839 7.09941L16.9013 6.4165Z" fill="black"/>
</svg>
