<svg width="17" height="16" viewBox="0 0 17 16" fill="none" xmlns="http://www.w3.org/2000/svg">
<path fill-rule="evenodd" clip-rule="evenodd" d="M1.1272 13.9259C1.1272 13.6864 1.36298 13.4922 1.65382 13.4922H15.3461C15.637 13.4922 15.8728 13.6864 15.8728 13.9259C15.8728 14.1654 15.637 14.3596 15.3461 14.3596H1.65382C1.36298 14.3596 1.1272 14.1654 1.1272 13.9259Z" fill="#090909"/>
<path fill-rule="evenodd" clip-rule="evenodd" d="M0.717651 7.87835C0.717651 7.65213 0.966529 7.46875 1.27354 7.46875H15.7265C16.0335 7.46875 16.2824 7.65213 16.2824 7.87835C16.2824 8.10456 16.0335 8.28795 15.7265 8.28795H1.27354C0.966529 8.28795 0.717651 8.10456 0.717651 7.87835Z" fill="#090909"/>
<path fill-rule="evenodd" clip-rule="evenodd" d="M0.717651 2.14593C0.717651 1.91971 0.966529 1.73633 1.27354 1.73633H15.7265C16.0335 1.73633 16.2824 1.91971 16.2824 2.14593C16.2824 2.37214 16.0335 2.55553 15.7265 2.55553H1.27354C0.966529 2.55553 0.717651 2.37214 0.717651 2.14593Z" fill="#090909"/>
<path d="M8.78914 13.8538C8.78914 14.5324 8.23899 15.0826 7.56034 15.0826C6.88169 15.0826 6.33154 14.5324 6.33154 13.8538C6.33154 13.1752 6.88169 12.625 7.56034 12.625C8.23899 12.625 8.78914 13.1752 8.78914 13.8538Z" fill="white"/>
<path fill-rule="evenodd" clip-rule="evenodd" d="M7.56034 14.3804C7.85119 14.3804 8.08697 14.1446 8.08697 13.8538C8.08697 13.5629 7.85119 13.3272 7.56034 13.3272C7.26949 13.3272 7.03371 13.5629 7.03371 13.8538C7.03371 14.1446 7.26949 14.3804 7.56034 14.3804ZM7.56034 15.0826C8.23899 15.0826 8.78914 14.5324 8.78914 13.8538C8.78914 13.1752 8.23899 12.625 7.56034 12.625C6.88169 12.625 6.33154 13.1752 6.33154 13.8538C6.33154 14.5324 6.88169 15.0826 7.56034 15.0826Z" fill="#090909"/>
<path d="M5.63289 7.87919C5.63289 8.55783 5.08274 9.10799 4.40409 9.10799C3.72544 9.10799 3.17529 8.55783 3.17529 7.87919C3.17529 7.20054 3.72544 6.65039 4.40409 6.65039C5.08274 6.65039 5.63289 7.20054 5.63289 7.87919Z" fill="white"/>
<path fill-rule="evenodd" clip-rule="evenodd" d="M4.40409 8.40582C4.69494 8.40582 4.93072 8.17004 4.93072 7.87919C4.93072 7.58834 4.69494 7.35256 4.40409 7.35256C4.11324 7.35256 3.87746 7.58834 3.87746 7.87919C3.87746 8.17004 4.11324 8.40582 4.40409 8.40582ZM4.40409 9.10799C5.08274 9.10799 5.63289 8.55783 5.63289 7.87919C5.63289 7.20054 5.08274 6.65039 4.40409 6.65039C3.72544 6.65039 3.17529 7.20054 3.17529 7.87919C3.17529 8.55783 3.72544 9.10799 4.40409 9.10799Z" fill="#090909"/>
<path d="M13.8249 2.14481C13.8249 2.82346 13.2748 3.37361 12.5961 3.37361C11.9175 3.37361 11.3673 2.82346 11.3673 2.14481C11.3673 1.46617 11.9175 0.916016 12.5961 0.916016C13.2748 0.916016 13.8249 1.46617 13.8249 2.14481Z" fill="white"/>
<path fill-rule="evenodd" clip-rule="evenodd" d="M12.5961 2.67144C12.887 2.67144 13.1227 2.43566 13.1227 2.14481C13.1227 1.85397 12.887 1.61819 12.5961 1.61819C12.3053 1.61819 12.0695 1.85397 12.0695 2.14481C12.0695 2.43566 12.3053 2.67144 12.5961 2.67144ZM12.5961 3.37361C13.2748 3.37361 13.8249 2.82346 13.8249 2.14481C13.8249 1.46617 13.2748 0.916016 12.5961 0.916016C11.9175 0.916016 11.3673 1.46617 11.3673 2.14481C11.3673 2.82346 11.9175 3.37361 12.5961 3.37361Z" fill="#090909"/>
</svg>
