<svg width="20" height="20" viewBox="0 0 20 20" fill="none" xmlns="http://www.w3.org/2000/svg">
<path fill-rule="evenodd" clip-rule="evenodd" d="M10 0C10.3682 0 10.6667 0.298477 10.6667 0.666667V3.33333C10.6667 3.34434 10.6664 3.35529 10.6659 3.36617C13.8161 3.67857 16.3214 6.18388 16.6338 9.33414C16.6447 9.33361 16.6557 9.33333 16.6667 9.33333H19.3333C19.7015 9.33333 20 9.63181 20 10C20 10.3682 19.7015 10.6667 19.3333 10.6667H16.6667C16.6557 10.6667 16.6447 10.6664 16.6338 10.6659C16.3214 13.8161 13.8161 16.3214 10.6659 16.6338C10.6664 16.6447 10.6667 16.6557 10.6667 16.6667V19.3333C10.6667 19.7015 10.3682 20 10 20C9.63181 20 9.33333 19.7015 9.33333 19.3333V16.6667C9.33333 16.6557 9.33361 16.6447 9.33414 16.6338C6.18388 16.3214 3.67857 13.8161 3.36617 10.6659C3.35529 10.6664 3.34434 10.6667 3.33333 10.6667H0.666667C0.298477 10.6667 0 10.3682 0 10C0 9.63181 0.298477 9.33333 0.666667 9.33333H3.33333C3.34434 9.33333 3.35529 9.3336 3.36617 9.33413C3.67857 6.18388 6.18388 3.67857 9.33413 3.36617C9.3336 3.35529 9.33333 3.34434 9.33333 3.33333V0.666667C9.33333 0.298477 9.63181 0 10 0ZM15.3333 10C15.3333 12.9455 12.9455 15.3333 10 15.3333C7.05448 15.3333 4.66667 12.9455 4.66667 10C4.66667 7.05448 7.05448 4.66667 10 4.66667C12.9455 4.66667 15.3333 7.05448 15.3333 10ZM10 14C12.2091 14 14 12.2091 14 10C14 7.79086 12.2091 6 10 6C7.79086 6 6 7.79086 6 10C6 12.2091 7.79086 14 10 14Z" fill="black"/>
</svg>
