<svg width="24" height="24" viewBox="0 0 24 24" fill="none" xmlns="http://www.w3.org/2000/svg">
<path d="M12 18.2222L11.711 18.6302C11.8841 18.7529 12.1159 18.7529 12.289 18.6302L12 18.2222ZM12 18.2222C12.289 18.6302 12.2891 18.6302 12.2893 18.6301L12.2897 18.6298L12.2909 18.6289L12.2954 18.6257L12.3118 18.614C12.326 18.6038 12.3466 18.5889 12.3732 18.5695C12.4264 18.5307 12.5036 18.4738 12.6014 18.4002C12.7971 18.2529 13.0754 18.0385 13.4088 17.7679C14.075 17.2273 14.9649 16.4592 15.8567 15.5511C16.7468 14.6448 17.6498 13.5879 18.333 12.4688C19.013 11.3549 19.5 10.1392 19.5 8.92535C19.5 7.47682 19.051 6.35465 18.2652 5.59584C17.4837 4.84109 16.4249 4.5 15.3056 4.5C13.9542 4.5 12.7631 5.17194 12 6.20096C11.2369 5.17194 10.0458 4.5 8.69444 4.5C6.34979 4.5 4.5 6.51029 4.5 8.92535C4.5 10.1392 4.98697 11.3549 5.66699 12.4688C6.35017 13.5879 7.25317 14.6448 8.14327 15.5511C9.03509 16.4592 9.92505 17.2273 10.5912 17.7679C10.9246 18.0385 11.2029 18.2529 11.3986 18.4002C11.4964 18.4738 11.5736 18.5307 11.6268 18.5695C11.6534 18.5889 11.674 18.6038 11.6882 18.614L11.7046 18.6257L11.7091 18.6289L11.7103 18.6298L11.7107 18.6301C11.7109 18.6302 11.711 18.6302 12 18.2222Z" fill="#FF6858" stroke="#FF6858" stroke-linecap="round" stroke-linejoin="round"/>
</svg>
