<svg width="24" height="24" viewBox="0 0 24 24" fill="none" xmlns="http://www.w3.org/2000/svg">
<path d="M11.4572 7.42614C11.5563 7.63629 11.7677 7.77039 12 7.77039C12.2323 7.77039 12.4437 7.63629 12.5428 7.42614C13.0605 6.32748 14.1145 5.6 15.3056 5.6C16.2067 5.6 16.9682 5.87247 17.5011 6.38712C18.029 6.8969 18.4 7.70924 18.4 8.92535C18.4 9.8549 18.0219 10.8674 17.3941 11.8957C16.7702 12.9177 15.9288 13.9078 15.0719 14.7803C14.2171 15.6507 13.3601 16.3908 12.7156 16.9138C12.427 17.1481 12.1819 17.3381 12 17.476C11.8181 17.3381 11.573 17.1481 11.2844 16.9138C10.6399 16.3908 9.78289 15.6507 8.92808 14.7803C8.07119 13.9078 7.2298 12.9177 6.60586 11.8957C5.97814 10.8674 5.6 9.8549 5.6 8.92535C5.6 7.05402 7.01918 5.6 8.69444 5.6C9.88554 5.6 10.9395 6.32748 11.4572 7.42614Z" stroke="#090909" stroke-width="1.2" stroke-linecap="round" stroke-linejoin="round"/>
</svg>
